<svg width="14" height="18" viewBox="0 0 14 18" fill="none" xmlns="http://www.w3.org/2000/svg">
<path d="M0.721591 18V0.545454H7.40341C8.66477 0.545454 9.71307 0.744318 10.5483 1.14204C11.3892 1.53409 12.017 2.07102 12.4318 2.75284C12.8523 3.43466 13.0625 4.20739 13.0625 5.07102C13.0625 5.78125 12.9261 6.3892 12.6534 6.89489C12.3807 7.39489 12.0142 7.80114 11.554 8.11364C11.0938 8.42614 10.5795 8.65057 10.0114 8.78693V8.95739C10.6307 8.99148 11.2244 9.18182 11.7926 9.52841C12.3665 9.86932 12.8352 10.3523 13.1989 10.9773C13.5625 11.6023 13.7443 12.358 13.7443 13.2443C13.7443 14.1477 13.5256 14.9602 13.0881 15.6818C12.6506 16.3977 11.9915 16.9631 11.1108 17.3778C10.2301 17.7926 9.12216 18 7.78693 18H0.721591ZM3.88352 15.358H7.28409C8.43182 15.358 9.25852 15.1392 9.7642 14.7017C10.2756 14.2585 10.5312 13.6903 10.5312 12.9972C10.5312 12.4801 10.4034 12.0142 10.1477 11.5994C9.89205 11.179 9.52841 10.8494 9.05682 10.6108C8.58523 10.3665 8.02273 10.2443 7.36932 10.2443H3.88352V15.358ZM3.88352 7.96875H7.01136C7.55682 7.96875 8.0483 7.86932 8.4858 7.67045C8.9233 7.46591 9.26705 7.17898 9.51705 6.80966C9.77273 6.43466 9.90057 5.99148 9.90057 5.48011C9.90057 4.80398 9.66193 4.24716 9.18466 3.80966C8.71307 3.37216 8.01136 3.15341 7.07955 3.15341H3.88352V7.96875Z" fill="#BFBFBF"/>
</svg>
