<svg width="30" height="16" viewBox="0 0 30 16" fill="none" xmlns="http://www.w3.org/2000/svg">
<path fill-rule="evenodd" clip-rule="evenodd" d="M0.706253 7.14863L0 7.59856L0.209807 7.92789L0.0361326 8.20051L0.620756 8.57296L1.0746 9.28535L1.40679 9.07372L11.9635 15.7991L13.0381 14.1123L3.26795 7.88803L13.002 1.68678L11.9274 0L1.40679 6.70234L1.11073 6.51373L0.706253 7.14863ZM28.5566 9.07372L17.9999 15.7991L16.9253 14.1123L26.6954 7.88803L16.9614 1.68678L18.036 0L28.5566 6.70234L28.8526 6.51373L29.2571 7.14863L29.9634 7.59856L29.7536 7.9279L29.9272 8.20051L29.3426 8.57295L28.8888 9.28535L28.5566 9.07372Z" fill="#BFBFBF"/>
</svg>
