<svg width="27" height="27" viewBox="0 0 27 27" fill="none" xmlns="http://www.w3.org/2000/svg">
<path d="M16.6385 19.8691L14.1364 17.388C12.929 16.1905 12.3253 15.5919 11.6326 15.373C11.0233 15.1806 10.3684 15.1876 9.7634 15.3933C9.0755 15.6271 8.48489 16.2387 7.3037 17.4618L1.30881 23.383M16.6385 19.8691L17.1506 19.3614C18.3595 18.1626 18.9638 17.5632 19.6574 17.3443C20.2673 17.1519 20.9227 17.1595 21.5281 17.3659C22.2163 17.6005 22.8068 18.2137 23.9878 19.44L25.2427 20.703M16.6385 19.8691L22.6552 25.8976M1.30881 23.383C1.35536 23.761 1.43462 24.0598 1.56966 24.3249C1.85727 24.8893 2.31621 25.3483 2.88071 25.6359C3.52244 25.9629 4.36251 25.9629 6.04268 25.9629H20.4427C21.4241 25.9629 22.1191 25.9629 22.6552 25.8976M1.30881 23.383C1.24268 22.846 1.24268 22.1491 1.24268 21.1629V6.76289C1.24268 5.08274 1.24268 4.24265 1.56966 3.60092C1.85727 3.03643 2.31621 2.57749 2.88071 2.28988C3.52244 1.96289 4.36251 1.96289 6.04268 1.96289H20.4427C22.1228 1.96289 22.963 1.96289 23.6047 2.28988C24.1691 2.57749 24.6281 3.03643 24.9157 3.60092C25.2427 4.24265 25.2427 5.08274 25.2427 6.76289V20.703M25.2427 20.703V21.1629C25.2427 22.843 25.2427 23.6832 24.9157 24.3249C24.6281 24.8893 24.1691 25.3483 23.6047 25.6359C23.3378 25.7719 23.0366 25.8513 22.6552 25.8976M20.7427 9.46273C20.7427 11.1196 19.3996 12.4627 17.7427 12.4627C16.0858 12.4627 14.7427 11.1196 14.7427 9.46273C14.7427 7.80587 16.0858 6.46273 17.7427 6.46273C19.3996 6.46273 20.7427 7.80587 20.7427 9.46273Z" stroke="#BFBFBF" stroke-width="2" stroke-linecap="round" stroke-linejoin="round"/>
</svg>
