<svg width="37" height="27" viewBox="0 0 37 27" fill="none" xmlns="http://www.w3.org/2000/svg">
<path d="M13.5776 24.0361C13.1374 24.447 12.7967 24.7221 12.4486 24.9232C10.7443 25.9071 8.64449 25.9071 6.9402 24.9232C6.31216 24.5605 5.70846 23.9568 4.50105 22.7496C3.29363 21.5421 2.68992 20.9384 2.32734 20.3103C1.34336 18.606 1.34336 16.5062 2.32734 14.8019C2.68992 14.174 3.29363 13.5702 4.50105 12.3628L9.69438 7.1695C10.9018 5.96209 11.5055 5.35837 12.1335 4.99579C13.8378 4.01182 15.9376 4.01182 17.6419 4.99577C18.2699 5.35837 18.8736 5.96209 20.081 7.1695C21.2884 8.37691 21.8922 8.98061 22.2548 9.60864C23.2388 11.3129 23.2388 13.4127 22.2548 15.117C22.0537 15.4651 21.7787 15.8059 21.3676 16.246M16.1978 11.0762C15.7867 11.5164 15.5116 11.8571 15.3106 12.2053C14.3267 13.9096 14.3267 16.0093 15.3106 17.7136C15.6732 18.3418 16.2769 18.9455 17.4844 20.1527C18.6918 21.3602 19.2955 21.9639 19.9235 22.3265C21.6278 23.3105 23.7275 23.3105 25.4318 22.3265C26.06 21.9639 26.6637 21.3602 27.8711 20.1527L33.0644 14.9595C34.2718 13.752 34.8755 13.1483 35.238 12.5204C36.222 10.8161 36.222 8.71626 35.238 7.01198C34.8755 6.38395 34.2718 5.78024 33.0644 4.57282C31.857 3.36541 31.2532 2.76171 30.6253 2.39911C28.9208 1.41514 26.8212 1.41514 25.1169 2.39911C24.7686 2.60013 24.428 2.87524 23.9877 3.28624" stroke="#BFBFBF" stroke-width="2" stroke-linecap="round"/>
</svg>
