<svg width="18" height="25" viewBox="0 0 18 25" fill="none" xmlns="http://www.w3.org/2000/svg">
<path d="M13.5682 0.545454H15.6818V12.1023C15.6818 13.2955 15.4006 14.3608 14.8381 15.2983C14.2813 16.2301 13.4943 16.9659 12.4773 17.5057C11.4602 18.0398 10.267 18.3068 8.89773 18.3068C7.52841 18.3068 6.33523 18.0398 5.31818 17.5057C4.30114 16.9659 3.51136 16.2301 2.94886 15.2983C2.39205 14.3608 2.11364 13.2955 2.11364 12.1023V0.545454H4.22727V11.9318C4.22727 12.7841 4.41477 13.5426 4.78977 14.2074C5.16477 14.8665 5.69886 15.3864 6.39205 15.767C7.09091 16.142 7.92614 16.3295 8.89773 16.3295C9.86932 16.3295 10.7045 16.142 11.4034 15.767C12.1023 15.3864 12.6364 14.8665 13.0057 14.2074C13.3807 13.5426 13.5682 12.7841 13.5682 11.9318V0.545454Z" fill="#BFBFBF"/>
<path d="M0 22.7727H17.7955V24.4091H0V22.7727Z" fill="#BFBFBF"/>
</svg>
